<?xml version="1.0" encoding="UTF-8"?>
<svg id="_レイヤー_1" data-name="レイヤー 1" xmlns="http://www.w3.org/2000/svg" viewBox="0 0 200.25 200.25">
  <defs>
    <style>
      .cls-1 {
        opacity: .5;
      }

      .cls-2 {
        fill: #f8fbfd;
      }

      .cls-2, .cls-3, .cls-4, .cls-5, .cls-6, .cls-7, .cls-8, .cls-9, .cls-10, .cls-11, .cls-12, .cls-13, .cls-14, .cls-15, .cls-16, .cls-17, .cls-18, .cls-19, .cls-20, .cls-21, .cls-22, .cls-23, .cls-24, .cls-25, .cls-26, .cls-27, .cls-28, .cls-29, .cls-30, .cls-31 {
        stroke-width: 0px;
      }

      .cls-3 {
        fill: #f9fcfd;
      }

      .cls-4 {
        fill: #9ad5e9;
      }

      .cls-5 {
        fill: #a1d9e9;
      }

      .cls-6 {
        fill: #93d6e6;
      }

      .cls-7 {
        fill: #b2dbeb;
      }

      .cls-8 {
        fill: #a8d7e7;
      }

      .cls-9 {
        fill: #acd7e7;
      }

      .cls-10 {
        fill: #a3d8e9;
      }

      .cls-11 {
        fill: #addbeb;
      }

      .cls-12 {
        fill: #add8e9;
      }

      .cls-13 {
        fill: #afdbeb;
      }

      .cls-14 {
        fill: #bcd9e4;
      }

      .cls-15 {
        fill: #a9daed;
      }

      .cls-16 {
        fill: #a6d8ea;
      }

      .cls-17 {
        fill: #b0d8e7;
      }

      .cls-18 {
        fill: #a4d7e9;
      }

      .cls-19 {
        fill: #b7d8e4;
      }

      .cls-20 {
        fill: #9cd6ea;
      }

      .cls-21 {
        fill: #9dd9f0;
      }

      .cls-22 {
        fill: #9dd7eb;
      }

      .cls-23 {
        fill: #9dd7e9;
      }

      .cls-24 {
        fill: #a0d7eb;
      }

      .cls-25 {
        fill: #98d6ed;
      }

      .cls-26 {
        fill: #97d9f3;
      }

      .cls-27 {
        fill: #9bd8ee;
      }

      .cls-28 {
        fill: #9fd6e7;
      }

      .cls-29 {
        fill: #9fd6eb;
      }

      .cls-30 {
        fill: #fdfefe;
      }

      .cls-31 {
        fill: #fafcfd;
      }
    </style>
  </defs>
  <g class="cls-1">
    <path class="cls-30" d="m.13.13c66.67,0,133.33,0,200,0,0,66.67,0,133.33,0,200-66.67,0-133.33,0-200,0,0-66.67,0-133.33,0-200Zm34.99,149.97c-1,0-1.99.02-2.99.02-.64.78-1.79,1.53-1.85,2.35-.34,5.22-.44,10.45-.61,15.68-1.21,7.16-.14,7.89,7.62,5.38v-9.31c.29-.03.56-.12.81-.26,1.15.05,2.3.16,3.44.13,4.06-.12,7.98-.37,5.9,5.91-.43,1.28.59,4.32,1.35,4.47,1.7.33,3.66-.65,5.51-1.09,0,0-.02-.14-.02-.14.53-2.37,1.05-4.74,1.58-7.11l.02-2.96c0-.35,0-.69,0-1.04.07-2.67.14-5.33.21-8,.07-1.48.47-4.14.14-4.24-1.82-.52-3.9-.79-5.71-.37-.95.22-2.27,2.14-2.14,3.12.81,5.93-3.12,6.23-7.2,6.46-.98.06-1.97-.07-2.95-.11-.12-.94-.25-1.87-.37-2.81.19-1.96.37-3.93.56-5.89-1.1-.06-2.2-.11-3.3-.17Zm48.13-102.94c-.4,1.65-.79,3.29-1.19,4.94-4.9.07-9.79.11-14.69.22-5.92.14-11.84.34-17.76.51-5.09.15-10.21.06-15.26.6-1.41.15-3.03,1.97-3.72,3.42-.3.64,1.49,2.27,2.33,3.45.32.64.65,1.29.97,1.93,1.37.7,2.74,1.41,4.11,2.11.29.29.59.57.88.86.41.33.81.66,1.22.98.26.1.53.18.8.24,6.63,4.62,13.26,9.25,19.9,13.87,1.05.98,2.1,1.97,3.15,2.95h.07c5.16,3.99,5.87,8.5,2.97,14.51-2.31,4.78-3.17,10.25-4.68,15.42-.1.61-.2,1.22-.31,1.83-1.32,2.65-3.1,5.18-3.86,7.99-1.07,3.94-1.38,8.08-2.01,12.14.58.71,1.16,1.42,1.74,2.13,1.46,0,2.93,0,4.39,0,11.33-7.96,22.71-15.84,33.94-23.93,2.5-1.8,4.39-2.41,6.97-.27,3.17,2.63,6.55,5.01,9.93,7.37,5.26,3.67,10.6,7.23,15.91,10.84,1.64,1.51,3.05,3.55,4.98,4.41,2.62,1.15,5.64,1.39,8.49,2.02.27-2.39,1.27-4.98.66-7.13-2.13-7.56-4.81-14.97-7.28-22.44-.93-3.29-1.38-6.82-2.9-9.81-2.91-5.75-2.5-10.63,2.27-15.04,6.64-4.28,13.45-8.33,19.86-12.93,4.63-3.32,8.74-7.37,13.08-11.1,1.8-2.63.88-4.46-1.94-5.11-2.33-.54-4.81-.47-7.22-.66-.97,0-1.94,0-2.9,0-1.69,0-3.38-.02-5.07-.02-.65,0-1.3,0-1.95,0-3.01-.03-6.03-.07-9.04-.1-.65,0-1.3,0-1.95,0-3.12-.08-6.28.12-9.35-.31-4.13-.57-9.03.9-11.81-3.87-.06-.66-.11-1.31-.17-1.97-.51-.78-1.02-1.56-1.52-2.33-.11-.89-.22-1.79-.33-2.68-1.61-3.7-3.21-7.4-4.82-11.1-2.34-7.65-4.69-15.3-7.03-22.94-2.72-2.98-6.16-2.41-7.59,1.57-1.44,4-2.35,8.18-3.49,12.29-2.93,8.39-5.87,16.77-8.8,25.16Zm-21.91,111.99c-.23,4.03-.52,8.05-.61,12.08-.01.66.87,1.35,1.34,2.03,6.27,1.98,7.05,1.37,7.13-4.7.07-5.46.48-10.91.73-16.36-.19-.6-.32-1.69-.57-1.72-2.01-.24-5.11-1.12-5.84-.19-1.37,1.74-1.38,4.56-1.96,6.93-.07.64-.15,1.28-.22,1.93Zm20.98-5.05c.21-1.47.43-2.95.73-5.01-3.49.89-7.95-2.04-7.61,4.11-.35,6.83-.7,13.66-1.05,20.39,7.51,1.89,7.59,1.83,7.75-5.49.04-1.65,0-3.29,0-4.94,2.08,2.15,4.91,3.97,6.08,6.54,2.13,4.69,5.59,5.67,10.02,5.31,1.96-.16,3.91-.52,5.87-.79,1-.06,2-.12,3-.19.65-.63,1.3-1.26,1.96-1.9.09-.28.13-.56.13-.85.99-1.37,1.99-2.74,2.98-4.12,4.7-.34,9.05-.83,11.05,5.4,1.1,3.41,4.63,3.02,7.82.71-2.02-5.36-4.04-10.74-6.07-16.11-.29-3.42-.94-7.32-4.92-7.44-3.57-.11-8.39-.33-9.08,5.34-.29.68-.58,1.35-.88,2.03-1.01,1.68-2.03,3.36-3.04,5.05-.08.26-.1.52-.06.78-.67,1.39-1.35,2.77-2.02,4.16-.33.6-.67,1.2-1,1.81-1.51,1.44-3.02,2.87-4.7,4.46-1.34-2.09-2.49-4.77-4.42-6.68-3.47-3.42-2.42-6.46-.07-9.68,1.7-2.32,3.46-4.6,5.48-7.27-4.94-.91-8.5-1.05-10.97,3.52-1.44,2.66-4.12,4.65-6.25,6.94-.25-2.03-.49-4.05-.74-6.08Zm58.64,19c.05-1.32.09-2.64.14-3.96.57-2.22,1.13-4.45,1.69-6.64,2.26,3.4,4.31,6.49,6.37,9.58-.16,4.01,2.82,3.24,4.84,2.72,3.04-.78,1.42-2.66.85-4.65-.69-2.39-.68-5.15-.27-7.64.42-2.53,1.68-4.92,2.58-7.37-2.02-1.64-3.83-4.2-6.1-4.72-3.76-.87-7.88-.05-11.74-.66-3.78-.59-4.08,1.21-4.22,4.09-.27,5.6-.89,11.18-1.13,16.78-.06,1.3.88,3.79,1.31,3.78,1.9-.04,3.79-.8,5.69-1.3Zm21.62-22.18c-.66,6.75-1.4,13.15-1.87,19.57-.18,2.38.25,4.66,3.68,4.59,2.85-.06,4.77-.42,4.77-4.04,0-4.62.18-9.3.93-13.85,1.21-7.33-.12-8.65-7.51-6.27Zm-70.99,35.21c-.68-.51-1.36-1.01-2.04-1.52-1.42,1.28-2.84,2.56-4.26,3.84l3.75,2.58c.85-1.63,1.7-3.26,2.55-4.89Zm-13.55,5.26c.66.42,1.33.83,1.99,1.25,1.31-1.77,2.63-3.55,3.94-5.32-.97-.68-1.94-1.35-2.91-2.03l-3.02,6.1Zm36.8-6.55c-.13,0-.27,0-.4,0v1.63c.13,0,.27,0,.4,0v-1.63Z"/>
    <path class="cls-24" d="m62.05,114.98c.1-.61.2-1.22.3-1.83,1.25-1.15,2.97-2.07,3.66-3.49,1.63-3.39,2.77-7.01,4.11-10.54,1,0,2.01,0,3.01,0,.02,1.67.04,3.35.06,5.02-.31,1.01-.61,2.01-.92,3.02-.32.74-.63,1.49-.95,2.23-.7,4.09-1.41,8.19-2.16,12.56,1.35-.08,1.96.08,2.28-.16,6.42-4.69,12.94-9.26,19.09-14.29,1.54-1.26,2.26-3.97,2.61-6.14.63-3.91.31-8,1.2-11.83.39-1.67,2.65-3.86,4.31-4.11,5.82-.87,7.08,1.05,7.7,6.97.58,5.53-.88,11.9,4.7,16.05,1.69,1.26,3.37,2.53,5.05,3.79,1.51,6.48,2.95,7.69,8.07,6.76.34.32.67.65,1.01.97.34,3.75,1.33,7.15,4.95,9.12-.35.71-.71,1.43-1.06,2.14-5.31-3.61-10.65-7.17-15.91-10.84-3.38-2.36-6.76-4.74-9.93-7.37-2.57-2.14-4.47-1.53-6.97.27-11.23,8.09-22.61,15.97-33.94,23.93-1.46,0-2.93,0-4.39,0-.58-.71-1.16-1.42-1.74-2.13,3.22-6.34,6.15-12.77,5.87-20.13Z"/>
    <path class="cls-23" d="m73.13,99.13c-1,0-2.01,0-3.01,0,.32-1.95.7-3.9.96-5.86.79-5.96-1.34-8.99-7.01-10.03,0,0-.07,0-.07,0-1.05-.98-2.1-1.97-3.15-2.95-6.63-4.62-13.26-9.25-19.9-13.87,1.44.12,2.9.13,4.31.4,1.65.32,3.25.87,4.86,1.32,1.01,0,2.01,0,3.02,0,.28.91.28,2.3.88,2.64,4.63,2.6,9.35,5.07,14.13,7.4.83.41,2.06.02,3.1,0h7.21c-.46-3.7-.91-7.39-1.37-11.07,0,0-.02,0-.02,0,.98-.57,1.97-1.14,2.95-1.7-.64-.75-1.27-1.51-1.91-2.26-3.41-4.07-8.05-1.03-11.99-2.07.4-1.8.79-3.6,1.19-5.39.4.46.8.91,1.2,1.37,2.2-.63,4.41-1.27,6.61-1.9,2,.33,4,.66,6,.99,1.33-1.33,2.67-2.67,4-4,1.34.33,2.69.67,4.03,1-.68,2-1.35,4-2.03,6l-.89,1.26c-.33.93-.66,1.86-.98,2.79-.35.99-.71,1.98-1.06,2.98-.09,1.67-.17,3.34-.26,5.01-.25.37-.5.74-.75,1.11-2.58,7.68-5.16,15.35-7.74,23.03-.25.09-.5.17-.74.26.18.19.35.37.53.56-.14.98-.28,1.96-.42,2.94-.56.02-1.12.04-1.68.07Z"/>
    <path class="cls-18" d="m135.3,83.26c-4.77,4.41-5.18,9.29-2.27,15.04,1.52,2.99,1.97,6.53,2.9,9.82-1.88.13-3.76.25-5.64.38.98,2.69,1.96,5.37,2.94,8.06.55-.13,1.09-.26,1.64-.39-.58,2.65-1.17,5.31-1.75,7.96-.66-.67-1.32-1.33-1.99-2-.2-1.46-.23-2.96-.63-4.36-5.76-19.89-11.57-39.77-17.37-59.65.98.9,2.5,1.64,2.85,2.74,1.28,4.02,2.03,8.21,3.3,12.23.29.92,1.89,1.42,3.87,2.81-.53-3.52-.99-5.43-1.04-7.35-.04-1.47.45-2.96.7-4.45.77,3.49,1.67,6.96,2.29,10.48.77,4.36,2.94,5.58,6.89,3.52,1.1,1.72,2.21,3.45,3.31,5.17Z"/>
    <path class="cls-20" d="m135.3,83.26c-1.1-1.72-2.21-3.45-3.31-5.17,2.35-2.35,4.69-4.7,7.04-7.04,2.46,1.47,3.32.57,3.03-2.04.63-.33,1.25-.67,1.88-1,1.73-1.97,3.46-3.94,5.19-5.91.62-.97,1.26-2.78,1.86-2.77,3.89.08,7.76.55,11.96.92.01-.24.1-1.68.18-3.11,2.38-.93,4.32-.81,5.12,2.11-4.34,3.72-8.45,7.77-13.08,11.09-6.41,4.6-13.22,8.64-19.86,12.93Z"/>
    <path class="cls-5" d="m103.98,168.87c.33-.6.67-1.2,1-1.81.67-1.39,1.35-2.77,2.02-4.16-.04-.26-.02-.53.06-.78,3.41-.24,3.07-2.74,3.04-5.05.29-.68.58-1.35.88-2.03,5.2-2.83,9.69-.97,14,2.1,2.02,5.38,4.05,10.75,6.07,16.11-3.19,2.3-6.72,2.69-7.82-.71-2-6.23-6.35-5.74-11.05-5.4-.99,1.37-1.99,2.74-2.98,4.12,0,.29-.03.58-.13.85-.65.63-1.3,1.26-1.96,1.9-1,.06-2,.12-3,.19-.04-1.78-.09-3.56-.13-5.34Zm13.15-12.4c-.98,1.69-2.17,3.37-2.86,5.23-.19.5,1.32,2.32,1.76,2.23,1.81-.41,3.5-1.32,5.52-2.16-1.49-2.19-2.32-3.43-3.17-4.64-.08-.12-.28-.15-1.25-.65Z"/>
    <path class="cls-29" d="m133.12,124.13l1.75-7.96c-.55.13-1.09.26-1.64.39-.98-2.69-1.96-5.37-2.94-8.06,1.88-.13,3.76-.25,5.64-.38,2.47,7.47,5.15,14.87,7.27,22.44.6,2.14-.4,4.74-.66,7.13-2.85-.63-5.87-.87-8.49-2.02-1.93-.85-3.34-2.89-4.99-4.4.35-.71.71-1.42,1.06-2.14,1-1.66,1.99-3.33,2.99-4.99Z"/>
    <path class="cls-11" d="m103.98,168.87c.04,1.78.09,3.56.13,5.34-1.96.27-3.9.63-5.87.79-4.43.36-7.89-.62-10.02-5.31-1.17-2.57-4-4.38-6.08-6.54.3-.99.61-1.99.91-2.98,2.12-2.29,4.8-4.28,6.25-6.94,2.48-4.57,6.03-4.43,10.97-3.52-2.02,2.67-3.78,4.95-5.48,7.27-2.35,3.22-3.4,6.26.07,9.68,1.93,1.9,3.08,4.59,4.42,6.68,1.68-1.59,3.19-3.03,4.7-4.46Z"/>
    <path class="cls-12" d="m149.15,172.06c-2.05-3.09-4.11-6.18-6.37-9.58-.56,2.19-1.13,4.41-1.69,6.64-1.37-.64-2.74-1.27-4.32-2.01-1.4,4.4-.16,6.35,4.18,5.97-1.89.5-3.78,1.26-5.69,1.3-.43,0-1.37-2.47-1.31-3.78.24-5.6.86-11.18,1.13-16.78.14-2.88.44-4.68,4.22-4.09,3.86.61,7.98-.21,11.74.66,2.28.53,4.09,3.08,6.1,4.72-1.22-.66-2.45-1.31-3.67-1.98-2.16-1.19-4.29-2.3-5.43,1.18-6-.28-6.6.43-5.18,6.56,1.37.07,2.82.15,4.27.23.67,3.65,1.35,7.3,2.02,10.95Z"/>
    <path class="cls-18" d="m163.13,57.13c-.08,1.44-.17,2.87-.18,3.11-4.2-.37-8.07-.84-11.96-.92-.6-.01-1.24,1.8-1.86,2.77-1.05.04-2.1.08-3.15.11l-22.77-.06c.11-.9.08-1.86.37-2.7.39-1.15,1.02-2.22,1.55-3.32,2-.06,4.03.11,5.99-.23,2.47-.42,6.28,2.51,7.05-2.58.65,0,1.3,0,1.95,0,2.97,3.69,5.99,3.59,9.04.1.65,0,1.3,0,1.95,0,3.09,2.48,4.06,2.48,5.07.03.97,0,1.94,0,2.9,0-.37,3.12,1.28,4.01,4.05,3.67Z"/>
    <path class="cls-16" d="m162.57,150.9c7.39-2.38,8.71-1.06,7.51,6.27-.75,4.55-.93,9.23-.93,13.85,0,3.61-1.92,3.98-4.77,4.04-3.43.07-3.86-2.2-3.68-4.59.47-6.42,1.2-12.82,1.87-19.57Z"/>
    <path class="cls-22" d="m103.12,8.13c2.34,7.65,4.69,15.3,7.03,22.94-.34,1.36-.69,2.71-1.03,4.07-1.33-1.34-2.66-2.67-3.99-4.01,0,0-.01-.02-.01-.02-.31-.09-.62-.18-.93-.27-.4.42-.81.84-1.21,1.26-.28,1.34-.57,2.68-.86,4.03-.98,0-1.96,0-2.95.01-.41-1.03-.83-2.05-1.24-3.08.04-.64.08-1.28.12-1.92,1.48-3.38-1.08-2.83-2.9-2.99.33-1.01.65-2.02.98-3.03,6.48-.06,6.99-.73,5.46-7.11-.23-.94-.31-1.92-.46-2.88-.75-1.91-1.5-3.81-2.48-6.32,1.44-.22,2.96-.46,4.48-.69Z"/>
    <path class="cls-7" d="m81.12,56.12c-2-.33-4-.66-6-.99-3.02-.23-6.05-.71-9.06-.64-3.77.09-7.54.6-11.31.99-4.88.51-9.76,1.09-14.64,1.65-2.86-.02-6.01-.71-7.16,3.16-.84-1.18-2.63-2.81-2.33-3.45.69-1.45,2.31-3.27,3.72-3.42,5.05-.54,10.17-.45,15.26-.6,5.92-.17,11.84-.37,17.76-.51,4.89-.11,9.79-.15,14.69-.22-.31,1.35-.62,2.69-.93,4.04Z"/>
    <path class="cls-25" d="m125.12,56.14c-.53,1.1-1.16,2.17-1.55,3.32-.29.85-.26,1.8-.37,2.7-.13.65-.27,1.29-.4,1.94-.25,1.48-.74,2.97-.7,4.45.05,1.92.52,3.84,1.04,7.35-1.98-1.38-3.58-1.89-3.87-2.81-1.27-4.02-2.02-8.21-3.3-12.23-.35-1.1-1.87-1.84-2.85-2.74-.08-.29-.1-.58-.06-.87-.6-2.82,2-6.74-2.77-8.14-.07-.66-.14-1.32-.21-1.98,1-.72,2.11-1.34,2.98-2.2.78-.78,1.28-1.83,1.91-2.76.11.89.22,1.79.33,2.69.51.78,1.02,1.55,1.52,2.33.06.66.11,1.31.17,1.97-1.69,2.02-1.7,4.01.83,5.07,2.3.96,4.86,1.3,7.3,1.91Z"/>
    <path class="cls-23" d="m83.05,160.16c-.3.99-.61,1.99-.91,2.98,0,1.65.03,3.29,0,4.94-.16,7.32-.24,7.37-7.75,5.49.35-6.73.7-13.56,1.04-20.39,2.29.3,4.59.6,6.89.9.25,2.03.49,4.05.74,6.08Z"/>
    <path class="cls-9" d="m54.3,173.36c-1.85.45-3.81,1.42-5.51,1.09-.75-.14-1.77-3.18-1.35-4.47,2.08-6.28-1.84-6.03-5.9-5.91-1.14.03-2.29-.08-3.44-.13.04-1.66.08-3.32.12-4.99.98.04,1.97.17,2.95.12,4.08-.23,8.01-.52,7.2-6.46-.13-.98,1.19-2.9,2.14-3.12,1.81-.42,3.9-.15,5.71.37.33.09-.08,2.76-.14,4.24-1.78-1.07-4.2-5.25-5.38-.99-1.07,3.84-3.94,9.46,1.65,11.95-.83,2.44-1.83,4.38-1.93,6.36-.03.57,2.51,1.29,3.88,1.93Z"/>
    <path class="cls-28" d="m69.92,152.19c-.26,5.45-.66,10.9-.73,16.36-.08,6.07-.87,6.68-7.13,4.7-.24-4.7-.49-9.4-.73-14.11.07-.64.15-1.28.22-1.93,2.79-1.67,5.58-3.35,8.38-5.02Z"/>
    <path class="cls-10" d="m149.15,172.06c-.67-3.65-1.35-7.3-2.02-10.95,3.48-1.84,3.79-4.1.91-6.79,1.14-3.47,3.27-2.37,5.43-1.18,1.22.67,2.45,1.32,3.67,1.98-.89,2.45-2.16,4.84-2.58,7.37-.41,2.49-.42,5.25.27,7.64.57,1.99,2.19,3.87-.85,4.65-2.01.52-4.99,1.28-4.84-2.72Z"/>
    <path class="cls-21" d="m54.3,173.36c-1.36-.65-3.91-1.36-3.88-1.93.11-1.98,1.11-3.92,1.93-6.36-5.6-2.49-2.72-8.11-1.65-11.95,1.18-4.26,3.61-.08,5.38.99-.07,2.67-.14,5.33-.21,8-.37.17-.73.34-1.1.51.36.18.73.35,1.09.53,0,.99-.01,1.98-.01,2.96-.52,2.37-1.05,4.74-1.58,7.11,0,0,.02.14.02.14Z"/>
    <path class="cls-17" d="m64.07,83.24c5.67,1.05,7.8,4.07,7.01,10.03-.26,1.96-.64,3.91-.96,5.86-1.34,3.53-2.48,7.15-4.11,10.54-.68,1.42-2.41,2.34-3.66,3.49,1.51-5.17,2.38-10.64,4.68-15.42,2.9-6.01,2.19-10.52-2.97-14.5Z"/>
    <path class="cls-12" d="m103.12,8.13c-1.52.23-3.04.47-4.48.69.98,2.5,1.73,4.41,2.48,6.32-1.21.15-2.42.29-2.17.26-1.18,3.23-2,5.48-2.82,7.73-1.33,0-2.66,0-3.99.01-.03-.38-.06-.77-.1-1.15,1.14-4.1,2.05-8.29,3.49-12.29,1.43-3.99,4.87-4.55,7.59-1.57Z"/>
    <path class="cls-25" d="m32.96,60.29c1.15-3.86,4.3-3.17,7.16-3.16.67,1.33,1.33,2.66,2,3.99,2.9,1.29,6.74,1.07,8,4.99v2c-1.62-.45-3.22-1-4.86-1.32-1.41-.27-2.87-.28-4.31-.4-.28-.05-.54-.13-.81-.24-.41-.33-.81-.66-1.22-.98-.29-.29-.59-.57-.88-.86-1.37-.7-2.74-1.41-4.11-2.11-.32-.64-.65-1.29-.97-1.93Z"/>
    <path class="cls-8" d="m37.29,164.21v9.31c-7.77,2.51-8.83,1.78-7.63-5.38.82-1.34,1.65-2.69,2.48-4.03,1.72.03,3.43.07,5.15.1Z"/>
    <path class="cls-13" d="m125.12,56.14c-2.44-.61-5-.95-7.3-1.91-2.53-1.06-2.51-3.05-.83-5.07,2.78,4.77,7.68,3.3,11.81,3.87,3.07.43,6.23.23,9.35.31-.77,5.08-4.58,2.16-7.05,2.58-1.95.33-3.99.17-5.99.23Z"/>
    <path class="cls-15" d="m114.97,42.17c-.63.93-1.13,1.98-1.91,2.76-.86.86-1.97,1.48-2.97,2.2-.31-.67-.62-1.35-.93-2.02-.01-3.32-.03-6.65-.04-9.97.34-1.36.69-2.71,1.03-4.07,1.61,3.7,3.21,7.4,4.82,11.1Z"/>
    <path class="cls-7" d="m124.98,157.15c-4.31-3.07-8.8-4.93-14-2.1.69-5.67,5.51-5.45,9.08-5.34,3.99.12,4.64,4.02,4.92,7.44Z"/>
    <path class="cls-7" d="m92.04,21.99c.03.38.06.77.1,1.15-1.05,5.52-2.09,11.05-3.17,16.57-.09.44-.57.8-.73,1.24-.74,2.04-1.42,4.1-2.13,6.16-.95.01-1.91.03-2.86.04,2.93-8.39,5.87-16.77,8.8-25.16Z"/>
    <path class="cls-17" d="m62.05,114.98c.28,7.36-2.65,13.79-5.87,20.13.63-4.06.95-8.2,2.01-12.14.76-2.81,2.53-5.34,3.86-7.99Z"/>
    <path class="cls-27" d="m37.29,164.21c-1.72-.03-3.43-.07-5.15-.1,0-.66,0-1.31,0-1.97,2.81-1.35,2.82-2.69-.01-4.02,0-1,0-1.99,0-2.99,1.33,0,2.66,0,3.99-.01.57.35,1.15.69,1.72,1.04.12.94.25,1.87.38,2.81-.04,1.66-.08,3.32-.12,4.99-.25.15-.52.23-.81.26Z"/>
    <path class="cls-9" d="m32.14,162.14c0,.66,0,1.31,0,1.97-.83,1.34-1.66,2.69-2.48,4.03.18-5.23.28-10.46.62-15.68.05-.82,1.2-1.57,1.85-2.35,0,1.67,0,3.34,0,5.02,0,1,0,1.99,0,2.99,0,1.34,0,2.68.01,4.02Z"/>
    <path class="cls-14" d="m69.92,152.19c-2.79,1.67-5.59,3.35-8.38,5.02.58-2.37.59-5.19,1.96-6.93.73-.93,3.83-.05,5.84.19.25.03.38,1.12.57,1.72Z"/>
    <path class="cls-13" d="m163.13,57.13c-2.77.34-4.43-.55-4.05-3.67,2.41.2,4.89.13,7.22.67,2.82.65,3.74,2.48,1.94,5.12-.79-2.92-2.74-3.03-5.11-2.11Z"/>
    <path class="cls-11" d="m82.31,154.08c-2.3-.3-4.59-.6-6.89-.9-.34-6.15,4.12-3.22,7.61-4.11-.3,2.06-.51,3.54-.73,5.01Z"/>
    <path class="cls-14" d="m91.58,186.12c-.85,1.63-1.7,3.26-2.55,4.89l-3.75-2.58c1.42-1.28,2.84-2.56,4.26-3.84.68.51,1.36,1.01,2.04,1.52Z"/>
    <path class="cls-14" d="m78.03,191.38l3.02-6.1c.97.68,1.94,1.35,2.91,2.03-1.31,1.77-2.63,3.55-3.94,5.32-.66-.42-1.33-.83-1.99-1.25Z"/>
    <path class="cls-16" d="m83.24,47.15c.95-.01,1.91-.03,2.86-.04-.33,1.67-.65,3.34-.98,5.02-1.33,1.33-2.67,2.67-4,4,.31-1.35.62-2.69.93-4.04.4-1.65.79-3.29,1.19-4.94Z"/>
    <path class="cls-25" d="m140.95,173.08c-4.35.38-5.58-1.57-4.18-5.97,1.58.74,2.95,1.37,4.32,2.01-.05,1.32-.09,2.64-.14,3.96Z"/>
    <path class="cls-8" d="m32.13,155.13c0-1.67,0-3.34,0-5.02,1,0,1.99-.02,2.99-.02.34,1.68.68,3.35,1.02,5.03-1.33,0-2.66,0-3.99.01Z"/>
    <path class="cls-13" d="m149.15,53.44c-3.06,3.49-6.07,3.59-9.04-.1,3.01.04,6.03.07,9.04.1Z"/>
    <path class="cls-9" d="m36.13,155.12c-.34-1.68-.68-3.35-1.02-5.03,1.1.06,2.2.11,3.3.17-.19,1.96-.37,3.93-.56,5.89-.58-.34-1.15-.69-1.72-1.04Z"/>
    <path class="cls-14" d="m61.33,159.14c.24,4.7.49,9.4.73,14.11-.47-.67-1.36-1.36-1.34-2.02.09-4.03.39-8.06.61-12.08Z"/>
    <path class="cls-17" d="m110.1,157.07c.03,2.31.37,4.81-3.04,5.05,1.01-1.68,2.02-3.36,3.04-5.05Z"/>
    <path class="cls-13" d="m156.17,53.46c-1.01,2.46-1.98,2.45-5.07-.03,1.69.01,3.38.02,5.07.03Z"/>
    <path class="cls-9" d="m54.27,173.22c.53-2.37,1.05-4.74,1.58-7.11-.53,2.37-1.05,4.74-1.58,7.11Z"/>
    <path class="cls-17" d="m60.85,80.28c1.05.98,2.1,1.97,3.15,2.95-1.05-.98-2.1-1.97-3.15-2.95Z"/>
    <path class="cls-17" d="m107,162.9c-.67,1.39-1.35,2.77-2.02,4.16.67-1.39,1.35-2.77,2.02-4.16Z"/>
    <path class="cls-11" d="m109.19,171.26c.99-1.37,1.99-2.74,2.98-4.12-.99,1.37-1.99,2.74-2.98,4.12Z"/>
    <path class="cls-23" d="m33.93,62.22c1.37.7,2.74,1.4,4.11,2.11-1.37-.7-2.74-1.4-4.11-2.11Z"/>
    <path class="cls-13" d="m116.83,47.19c-.51-.78-1.02-1.55-1.52-2.33.51.78,1.02,1.55,1.52,2.33Z"/>
    <path class="cls-17" d="m57.93,137.24c1.46,0,2.93,0,4.39,0-1.46,0-2.93,0-4.39,0Z"/>
    <path class="cls-11" d="m107.11,174.01c.65-.63,1.3-1.26,1.96-1.9-.65.63-1.3,1.26-1.96,1.9Z"/>
    <path class="cls-14" d="m114.83,184.83v1.63c-.13,0-.27,0-.4,0v-1.63c.13,0,.27,0,.4,0Z"/>
    <path class="cls-9" d="m55.87,163.15c-.36-.18-.73-.35-1.09-.53.37-.17.73-.34,1.1-.51,0,.35,0,.69-.01,1.04Z"/>
    <path class="cls-23" d="m38.93,65.19c.41.33.81.66,1.22.98-.41-.33-.81-.66-1.22-.98Z"/>
    <path class="cls-31" d="m109.16,45.11c.31.67.62,1.35.93,2.02.07.66.14,1.32.2,1.98.92,2.71,1.85,5.43,2.77,8.14-.03.29-.01.58.06.87,5.8,19.88,11.61,39.76,17.37,59.65.4,1.4.43,2.91.63,4.36-1.98-.71-3.97-1.42-5.95-2.13-.34-.32-.67-.65-1.01-.97-2.69-2.25-5.38-4.51-8.07-6.76-1.68-1.27-3.36-2.54-5.05-3.79-5.57-4.15-4.12-10.52-4.7-16.05-.62-5.92-1.89-7.84-7.7-6.97-1.66.25-3.92,2.44-4.31,4.11-.89,3.82-.57,7.92-1.2,11.83-.35,2.16-1.07,4.88-2.61,6.14-6.15,5.03-12.67,9.59-19.09,14.29-.32.24-.93.08-2.28.16.75-4.37,1.45-8.46,2.16-12.56.32-.74.63-1.49.95-2.23.31-1.01.61-2.01.92-3.02.54-1.7,1.08-3.39,1.63-5.09.14-.98.28-1.96.42-2.94.06-.28.13-.55.22-.82,2.58-7.68,5.16-15.35,7.74-23.03.25-.37.5-.74.75-1.11.09-1.67.17-3.34.26-5.01.35-.99.71-1.98,1.06-2.98.33-.93.66-1.86.98-2.79.3-.42.59-.84.89-1.26.68-2,1.35-4,2.03-6,1.67-6,3.34-11.99,5.01-17.99.31-1.01.61-2.01.92-3.02.08-.56.17-1.12.25-1.68.9.24,1.81.47,2.71.71-.04.64-.08,1.28-.12,1.92-.54,7.7-1.09,15.4-1.63,23.1-.04.65-.08,1.29-.12,1.94,0,.34,0,.68.01,1.02-.02,1.33-.04,2.66-.06,3.99-.34,3.17-.81,6.33-.87,9.51,0,.49,1.87,1.03,2.87,1.54,2.17-.72,6.26,2.01,6.32-2.29.11-7.26-.77-14.53-1.23-21.8-.02-2.32-.04-4.64-.06-6.96-.02-.33-.04-.67-.07-1-.02-1.33-.04-2.66-.06-3.98-.02-2.01-.04-4.02-.07-6.02.4-.42.81-.84,1.21-1.26.29.17.6.26.93.27,0,0,.01.02.01.01,1.34,4.66,2.69,9.32,4.03,13.98Z"/>
    <path class="cls-15" d="m125.18,120c1.98.71,3.97,1.42,5.95,2.13.66.67,1.32,1.33,1.99,2-1,1.66-1.99,3.33-2.99,4.99-3.61-1.97-4.6-5.37-4.95-9.12Z"/>
    <path class="cls-17" d="m116.1,112.26c2.69,2.25,5.38,4.51,8.07,6.76-5.12.92-6.57-.29-8.07-6.76Z"/>
    <path class="cls-17" d="m74.81,99.06c-.54,1.7-1.08,3.39-1.63,5.09-.02-1.67-.04-3.35-.06-5.02.56-.02,1.12-.04,1.68-.07Z"/>
    <path class="cls-17" d="m72.26,107.17c-.32.74-.64,1.49-.95,2.23.32-.74.64-1.49.95-2.23Z"/>
    <path class="cls-3" d="m66.13,61.06c3.94,1.04,8.58-2,11.99,2.07-.35,1.32-.69,2.64-1.04,3.96,0,0,.02,0,.02,0-2.09,3.4-.57,8.86-5.92,10.4-5.65-3.84-11.3-7.69-16.95-11.53-.53-1.1-1.07-2.19-1.79-3.66,4.79-.44,9.24-.84,13.69-1.24Z"/>
    <path class="cls-10" d="m66.13,61.06c-4.45.4-8.9.81-13.69,1.24.72,1.47,1.25,2.57,1.78,3.67-.36.72-.72,1.44-1.08,2.15-1.01,0-2.01,0-3.02,0,0-.67,0-1.33,0-2-.15-2.26-.3-4.52-.46-6.96-3.31.86-5.43,1.42-7.54,1.97-.67-1.33-1.33-2.66-2-3.99,4.88-.55,9.75-1.13,14.64-1.65,3.76-.4,7.53-.9,11.31-.99,3.01-.07,6.04.41,9.06.64-2.2.63-4.41,1.27-6.61,1.9-.4-.46-.8-.91-1.2-1.37-.4,1.8-.79,3.6-1.19,5.39Z"/>
    <path class="cls-27" d="m94.17,35.14c-1.67,6-3.34,11.99-5.01,17.99-1.34-.33-2.69-.67-4.03-1,.33-1.67.65-3.34.98-5.02.71-2.05,1.39-4.11,2.13-6.16.16-.45.64-.8.73-1.24,1.08-5.52,2.12-11.04,3.17-16.57,1.33,0,2.66,0,3.99-.01,0,.67,0,1.34,0,2-.33,1.01-.65,2.02-.98,3.03.06.76.13,1.52.2,2.28-.08.56-.17,1.12-.25,1.68-.31,1.01-.61,2.01-.92,3.02Z"/>
    <path class="cls-7" d="m53.15,68.13c.36-.72.72-1.44,1.08-2.15,5.65,3.84,11.3,7.68,16.95,11.52,0,.22.02.45.08.67-1.04.02-2.27.41-3.1,0-4.77-2.34-9.49-4.8-14.13-7.4-.6-.34-.6-1.73-.88-2.64Z"/>
    <path class="cls-8" d="m71.25,78.17c-.05-.22-.08-.45-.08-.67,5.35-1.54,3.83-7,5.92-10.4.45,3.69.91,7.37,1.37,11.07h-7.21Z"/>
    <path class="cls-8" d="m77.08,67.09c.35-1.32.69-2.64,1.04-3.96.64.75,1.27,1.51,1.91,2.26-.98.57-1.97,1.14-2.95,1.7Z"/>
    <path class="cls-16" d="m85.25,63.18c-.35.99-.71,1.98-1.06,2.98.35-.99.71-1.98,1.06-2.98Z"/>
    <path class="cls-16" d="m87.13,59.12c-.3.42-.6.84-.89,1.26.3-.42.59-.84.89-1.26Z"/>
    <path class="cls-17" d="m75.45,95.3c-.08.27-.16.54-.22.82-.17-.19-.35-.37-.53-.56.25-.09.5-.17.74-.26Z"/>
    <path class="cls-16" d="m83.93,71.16c-.25.37-.5.74-.75,1.11.25-.37.5-.74.75-1.11Z"/>
    <path class="cls-2" d="m122.81,64.1c.13-.65.26-1.29.4-1.94,7.59.02,15.18.04,22.77.05-.68,1.93-1.36,3.86-2.04,5.79-.63.33-1.25.67-1.88,1-1.01.68-2.02,1.36-3.03,2.04-2.35,2.35-4.69,4.7-7.04,7.04-3.95,2.06-6.12.84-6.89-3.52-.62-3.52-1.52-6.99-2.29-10.48Z"/>
    <path class="cls-13" d="m143.93,68.01c.68-1.93,1.36-3.86,2.04-5.79,1.05-.04,2.1-.07,3.15-.11-1.73,1.97-3.46,3.94-5.19,5.91Z"/>
    <path class="cls-13" d="m139.03,71.05c1.01-.68,2.02-1.36,3.03-2.04.29,2.61-.57,3.51-3.03,2.04Z"/>
    <path class="cls-14" d="m117.13,156.47c.97.5,1.17.54,1.25.65.85,1.22,1.68,2.45,3.17,4.64-2.02.84-3.71,1.75-5.52,2.16-.43.1-1.94-1.73-1.76-2.23.69-1.86,1.89-3.53,2.86-5.23Z"/>
    <path class="cls-2" d="m148.04,154.32c2.88,2.69,2.57,4.96-.91,6.79-1.45-.08-2.9-.16-4.27-.23-1.41-6.13-.82-6.85,5.18-6.56Z"/>
    <path class="cls-26" d="m103.04,38.13c.02,1.33.04,2.66.06,3.98.02.33.04.67.07,1,.02,2.32.04,4.64.05,6.96-1.7.35-3.4.69-5.1,1.04.35-4.99.7-9.98,1.04-14.97.98,0,1.96,0,2.95-.01.31.67.61,1.33.92,2Z"/>
    <path class="cls-19" d="m99.17,36.15c-.35,4.99-.7,9.98-1.04,14.97-.61,1.69-1.22,3.37-1.83,5.06.54-7.7,1.09-15.4,1.63-23.1.41,1.03.83,2.05,1.24,3.08Z"/>
    <path class="cls-6" d="m96.12,25.13c0-.67,0-1.34,0-2,.82-2.25,1.64-4.5,2.82-7.73-.24.03.97-.12,2.17-.26.15.96.23,1.94.46,2.88,1.53,6.39,1.03,7.06-5.46,7.11Z"/>
    <path class="cls-17" d="m109.16,45.11c-1.34-4.66-2.69-9.32-4.03-13.98,1.33,1.34,2.66,2.67,3.99,4.01.01,3.32.03,6.65.04,9.97Z"/>
    <path class="cls-19" d="m95.34,30.44c-.07-.76-.13-1.52-.2-2.28,1.83.16,4.39-.39,2.9,2.99-.9-.23-1.81-.47-2.71-.71Z"/>
    <path class="cls-17" d="m103.04,38.13c-.31-.67-.61-1.33-.92-2,.29-1.34.57-2.68.86-4.03.02,2.01.04,4.02.06,6.02Z"/>
    <path class="cls-17" d="m105.12,31.12c-.33-.01-.65-.1-.93-.27.31.09.62.18.93.27Z"/>
    <path class="cls-18" d="m113.07,57.25c-.92-2.71-1.85-5.43-2.77-8.14,4.77,1.4,2.17,5.32,2.77,8.14Z"/>
    <path class="cls-23" d="m42.12,61.13c2.12-.55,4.23-1.1,7.54-1.97.16,2.44.31,4.7.46,6.96-1.26-3.93-5.1-3.7-8-4.99Z"/>
    <path class="cls-8" d="m32.14,162.14c0-1.34,0-2.68-.01-4.02,2.83,1.33,2.82,2.67.01,4.02Z"/>
    <path class="cls-4" d="m96.3,56.17c.61-1.69,1.22-3.37,1.83-5.06,1.7-.35,3.4-.69,5.1-1.04.46,7.27,1.34,14.54,1.23,21.8-.06,4.3-4.15,1.57-6.32,2.29-.67-3.68-1.33-7.36-2-11.05.02-1.33.04-2.66.06-3.99.12-.1.36-.24.34-.29-.08-.26-.23-.49-.36-.73.04-.65.08-1.29.12-1.94Z"/>
    <path class="cls-19" d="m96.13,63.12c.67,3.68,1.33,7.36,2,11.05-1-.51-2.88-1.04-2.87-1.54.06-3.17.53-6.34.87-9.51Z"/>
    <path class="cls-7" d="m94.17,35.14c.31-1.01.61-2.01.92-3.02-.31,1.01-.61,2.01-.92,3.02Z"/>
    <path class="cls-19" d="m96.17,58.11c.13.24.28.47.36.73.02.06-.22.19-.34.29,0-.34,0-.68-.01-1.02Z"/>
    <path class="cls-17" d="m103.17,43.12c-.02-.33-.04-.67-.07-1,.02.33.04.67.07,1Z"/>
  </g>
</svg>